<?xml version="1.0" ?><svg viewBox="0 0 24 24" xmlns="http://www.w3.org/2000/svg"><defs><style>.a{fill:#c2f3ff;}.b,.c{fill:#66e1ff;}.c,.d{stroke:#191919;stroke-linecap:round;stroke-linejoin:round;}.d{fill:none;}</style></defs><title/><path class="a" d="M8.749,11.418c-2.931,4.209-6.06,4.754-6.06,7.828,0,1.517.866,4.037,3.328,4.037s3.652-.542,5.6-.542,3.247.759,5.709.759a3.615,3.615,0,0,0,3.49-3.847C20.6,16.477,17.517,16.7,14.4,11.2a3.017,3.017,0,0,0-2.786-1.3,3.33,3.33,0,0,0-2.869,1.518"/><path class="b" d="M11.756,19.093a17.989,17.989,0,0,1-8.378-2,3.544,3.544,0,0,0-.689,2.149c0,1.517.866,4.037,3.328,4.037s3.652-.542,5.6-.542,3.247.759,5.709.759a3.615,3.615,0,0,0,3.49-3.847,3.565,3.565,0,0,0-1.06-2.365A18.111,18.111,0,0,1,11.756,19.093Z"/><path class="c" d="M6.531,9.084c.136,1.955-.922,3.621-2.368,3.722S1.437,11.406,1.3,9.451s.924-3.623,2.368-3.725S6.4,7.129,6.531,9.084"/><path class="c" d="M19.768,7.381c-1.476.021-2.647,1.425-2.614,3.6s1.254,3.166,2.73,3.145S22.532,13.076,22.5,10.9a3.4,3.4,0,0,0-2.731-3.519"/><path class="c" d="M9.075.5C7.67.5,6.532,2.075,6.532,4.015S7.67,7.531,9.075,7.531s2.543-1.574,2.543-3.516S10.479.5,9.075.5"/><path class="c" d="M16.083,1.009C14.7.792,13.327,2.172,13.026,4.089s.581,3.649,1.968,3.867,2.756-1.162,3.057-3.08-.581-3.649-1.968-3.867"/><path class="d" d="M8.749,11.418c-2.931,4.209-6.06,4.754-6.06,7.828,0,1.517.866,4.037,3.328,4.037s3.652-.542,5.6-.542,3.247.759,5.709.759a3.615,3.615,0,0,0,3.49-3.847C20.6,16.477,17.517,16.7,14.4,11.2a3.017,3.017,0,0,0-2.786-1.3,3.33,3.33,0,0,0-2.869,1.518"/></svg>